<?xml version="1.0"?>
<svg xmlns="http://www.w3.org/2000/svg" xmlns:xlink="http://www.w3.org/1999/xlink" viewBox="0 0 64 64" width="512" height="512"><defs><linearGradient id="New_Gradient_Swatch_1" x1="32" y1="1" x2="32" y2="66.97" gradientUnits="userSpaceOnUse"><stop offset="0" stop-color="#fff33b"/><stop offset="0.014" stop-color="#fee72e"/><stop offset="0.042" stop-color="#fed51b"/><stop offset="0.07" stop-color="#fdca10"/><stop offset="0.1" stop-color="#fdc70c"/><stop offset="0.4" stop-color="#f3903f"/><stop offset="0.8" stop-color="#ed683c"/><stop offset="1" stop-color="#e93e3a"/></linearGradient></defs><g id="Training-study-learn-learning-presentation"><path d="M61,50H54V45a6.97,6.97,0,0,0-2.11-5H57a1,1,0,0,0,1-1V35a1,1,0,0,0-1-1H56V8h1a1,1,0,0,0,1-1V3a1,1,0,0,0-1-1H7A1,1,0,0,0,6,3V7A1,1,0,0,0,7,8H8V34H7a1,1,0,0,0-1,1v4a1,1,0,0,0,1,1h5.11A6.97,6.97,0,0,0,10,45v5H3a1,1,0,0,0-1,1v4a1,1,0,0,0,1,1H5v5a1,1,0,0,0,1,1H58a1,1,0,0,0,1-1V56h2a1,1,0,0,0,1-1V51A1,1,0,0,0,61,50Zm-9-5v5H38V45a5.017,5.017,0,0,1,4-4.9V45a1.033,1.033,0,0,0,.29.71l2,2a1.014,1.014,0,0,0,1.42,0l2-2A1.033,1.033,0,0,0,48,45V40.1A5.017,5.017,0,0,1,52,45ZM25.89,40H38.11A6.97,6.97,0,0,0,36,45v5H28V45A6.97,6.97,0,0,0,25.89,40ZM18,38a3.009,3.009,0,0,1-3-3V32.87l5.91-.85,2.09.7V35a3.009,3.009,0,0,1-3,3Zm2,2v4.59l-1,1-1-1V40Zm0-12a3,3,0,0,1,2.96,2.6l-1.64-.55a1.032,1.032,0,0,0-.46-.04l-5.84.83A2.988,2.988,0,0,1,18,28Zm-2-2V20h4v6.42A4.941,4.941,0,0,0,20,26Zm-1-8a1,1,0,0,0-1,1v7.42A5.014,5.014,0,0,0,13,31v3H10V8H54V34H51V31a5.014,5.014,0,0,0-3-4.58V11a1,1,0,0,0-1-1H41a1,1,0,0,0-1,1V28.03A4.939,4.939,0,0,0,39,31v3H36V15a1,1,0,0,0-1-1H29a1,1,0,0,0-1,1V34H25V31a4.939,4.939,0,0,0-1-2.97V19a1,1,0,0,0-1-1ZM44,38a3.009,3.009,0,0,1-3-3V32.87l5.91-.85,2.09.7V35a3.009,3.009,0,0,1-3,3Zm2,2v4.59l-1,1-1-1V40ZM44,28h2a3,3,0,0,1,2.96,2.6l-1.64-.55a1.032,1.032,0,0,0-.46-.04l-5.84.83A2.988,2.988,0,0,1,44,28Zm-2-1.58V12h4V26H44A4.941,4.941,0,0,0,42,26.42ZM34,16V34H30V16ZM24.9,36H39.1a4.84,4.84,0,0,0,.93,2H23.97A4.84,4.84,0,0,0,24.9,36ZM56,38H49.97a4.84,4.84,0,0,0,.93-2H56ZM8,4H56V6H8ZM8,38V36h5.1a4.84,4.84,0,0,0,.93,2Zm4,7a5.017,5.017,0,0,1,4-4.9V45a1.033,1.033,0,0,0,.29.71l2,2a1.014,1.014,0,0,0,1.42,0l2-2A1.033,1.033,0,0,0,22,45V40.1A5.017,5.017,0,0,1,26,45v5H12ZM57,60H7V56H57Zm3-6H4V52H60Z" style="fill:url(#New_Gradient_Swatch_1)"/></g></svg>
